<svg width="41" height="35" viewBox="0 0 41 35" fill="none" xmlns="http://www.w3.org/2000/svg">
<path d="M2.30859 4.84469C1.20403 4.84469 0.308594 3.94926 0.308594 2.84469C0.308594 1.74012 1.20403 0.844692 2.30859 0.844692V4.84469ZM40.3086 4.84469H2.30859V0.844692H40.3086V4.84469Z" fill="#262C31"/>
<path d="M2.30859 19.8447C1.20403 19.8447 0.308594 18.9493 0.308594 17.8447C0.308594 16.7401 1.20403 15.8447 2.30859 15.8447V19.8447ZM40.3086 19.8447H2.30859V15.8447H40.3086V19.8447Z" fill="#262C31"/>
<path d="M2.30859 34.8447C1.20403 34.8447 0.308594 33.9493 0.308594 32.8447C0.308594 31.7401 1.20403 30.8447 2.30859 30.8447V34.8447ZM40.3086 34.8447H2.30859V30.8447H40.3086V34.8447Z" fill="#262C31"/>
</svg>
