<svg width="38" height="38" viewBox="0 0 38 38" fill="none" xmlns="http://www.w3.org/2000/svg">
<path d="M24.5342 31.5026C17.6745 34.6234 9.65182 31.5732 6.57243 24.6427C3.50809 17.7458 6.65643 9.6409 13.5571 6.59309C20.3703 3.58386 28.3734 6.65581 31.3971 13.5489C34.3797 20.3477 31.369 28.3976 24.5342 31.5026ZM30.7304 13.7244C27.8083 7.20883 20.1957 4.32951 13.685 7.27844C7.22999 10.202 4.30162 17.9201 7.19592 24.3823C10.1287 30.9302 17.7515 33.8466 24.2266 30.8979C30.7543 27.9258 33.6594 20.2555 30.7306 13.725L30.7304 13.7244Z" fill="white"/>
<path fill-rule="evenodd" clip-rule="evenodd" d="M13.5571 6.59325C6.65644 9.64105 3.50809 17.7459 6.57244 24.6429C9.65182 31.5733 17.6745 34.6235 24.5342 31.5027C31.369 28.3978 34.3797 20.3479 31.3971 13.549C28.3734 6.65597 20.3703 3.58402 13.5571 6.59325ZM24.6566 31.7766C31.6428 28.6029 34.7194 20.3754 31.671 13.4269C28.5809 6.38211 20.4016 3.24223 13.4375 6.31809C6.3851 9.43292 3.16671 17.7164 6.29902 24.7663L6.55141 24.6524L6.29902 24.7663C9.44545 31.8477 17.6451 34.9664 24.6566 31.7766ZM30.4574 13.849C27.6031 7.48453 20.1673 4.67184 13.8071 7.55262C7.50303 10.4078 4.64259 17.9476 7.46898 24.2582C10.335 30.657 17.7818 33.5033 24.1039 30.6242C30.4814 27.7206 33.3183 20.2283 30.4577 13.8495L30.4574 13.849ZM13.685 7.2786C20.1957 4.32966 27.8083 7.20899 30.7304 13.7246L30.7307 13.7251C33.6594 20.2556 30.7543 27.9259 24.2266 30.898C17.7515 33.8467 10.1287 30.9304 7.19593 24.3825C4.30163 17.9202 7.22999 10.2022 13.685 7.2786Z" fill="white"/>
<path d="M29.6247 13.9113C31.0083 17.1176 31.1832 20.1138 30.1546 23.1539C29.2503 25.8277 27.598 27.9398 25.2143 29.4453C23.1005 30.7804 20.782 31.4158 18.2916 31.2518C14.4 30.9956 11.2992 29.254 9.05218 26.0565C7.45311 23.7812 6.71867 21.2163 6.88779 18.4288C7.11334 14.7174 8.66673 11.6497 11.6422 9.41734C14.8577 7.00514 18.4506 6.39737 22.2896 7.55585C25.011 8.37736 27.1555 10.0259 28.7421 12.3903C29.1218 12.9564 29.4292 13.5722 29.6247 13.9113ZM29.2867 14.2721C29.2865 14.272 29.2863 14.2718 29.2862 14.2716C29.1519 14.0148 28.9701 13.6607 28.7816 13.3102C28.6986 13.1563 28.6062 13.0074 28.5112 12.861C26.99 10.5072 24.9143 8.85672 22.2463 8.01917C18.7801 6.93125 15.4877 7.39439 12.4432 9.39596C10.1623 10.8957 8.62141 12.9999 7.8425 15.6198C6.75799 19.2687 7.28581 22.7131 9.4486 25.8182C11.6874 29.0329 14.8317 30.6964 18.7479 30.8093C21.1065 30.8775 23.2787 30.2036 25.2419 28.8859C27.4192 27.4244 28.9259 25.4274 29.7511 22.9351C30.7131 20.03 30.5338 17.1719 29.2873 14.2726C29.2872 14.2724 29.287 14.2722 29.2867 14.2721Z" fill="white"/>
<path d="M28.6217 14.5607C28.6215 14.5607 28.6215 14.5609 28.6215 14.561C29.7312 17.1309 29.8939 19.6541 29.0823 22.2207C28.2951 24.7096 26.8014 26.6883 24.6049 28.0841C21.72 29.9173 18.6194 30.3397 15.3681 29.3039C12.9969 28.5485 11.1064 27.1048 9.77382 24.9908C8.02082 22.2101 7.62767 19.2129 8.60435 16.0614C9.3769 13.567 10.8809 11.5913 13.0781 10.1971C15.9772 8.35689 19.0896 7.93671 22.3558 8.99139C24.695 9.74665 26.535 11.189 27.8914 13.2492C27.9875 13.3951 28.0799 13.5441 28.1637 13.6969C28.3381 14.016 28.505 14.3398 28.6218 14.5603C28.6219 14.5604 28.6218 14.5606 28.6217 14.5607ZM28.2816 14.8778C28.2821 14.8776 28.2823 14.877 28.282 14.8766C28.048 14.4528 27.8472 14.0479 27.6082 13.666C26.2839 11.5464 24.4244 10.0988 22.0484 9.37122C18.9335 8.41747 15.9751 8.85914 13.2384 10.6344C11.1575 11.9845 9.73492 13.8783 9.01606 16.2616C8.08013 19.3644 8.5144 22.2909 10.3078 24.9751C11.6224 26.9421 13.4527 28.2504 15.7077 28.9376C18.0281 29.6451 20.3286 29.5308 22.5827 28.628C24.3701 27.9122 25.8793 26.7983 27.0171 25.2336C29.3608 22.0106 29.735 18.5397 28.2812 14.8789C28.281 14.8785 28.2812 14.878 28.2816 14.8778Z" fill="white"/>
<path d="M22.5084 16.7199C22.5084 16.7198 22.5085 16.7196 22.5086 16.7196C22.795 16.6993 23.0651 16.6652 23.3347 16.6642C24.2265 16.6622 24.9392 17.0231 25.4422 17.767C25.8861 18.423 26.1441 19.1529 26.213 19.9441C26.2955 20.8939 25.9489 21.6898 25.3099 22.3733C24.7823 22.9374 24.1497 23.36 23.4885 23.7444C23.3816 23.8067 23.2736 23.8672 23.1624 23.9296C23.0626 23.9855 23.0221 24.1087 23.0688 24.213C23.4148 24.9856 23.7592 25.7588 24.1082 26.5294C24.1502 26.6232 24.1484 26.6734 24.045 26.7205C23.1701 27.1196 22.2981 27.5238 21.4247 27.926C21.3768 27.9479 21.3208 27.9208 21.2993 27.8727L20.77 26.691C20.4269 25.9248 19.5295 25.5862 18.7657 25.9346L17.4577 26.5312C16.9701 26.7536 16.3973 26.5374 16.1783 26.0484L15.9306 25.4953C15.8484 25.3117 15.9317 25.0988 16.1131 25.0117C16.2437 24.9483 16.3765 24.8871 16.5026 24.8148C16.7826 24.6531 16.8775 24.3589 16.7437 24.06C16.3103 23.0925 15.8751 22.1251 15.4392 21.1588C14.8928 19.9489 14.3438 18.7402 13.7969 17.5306C13.5892 17.071 13.1775 16.8988 12.7068 17.0827C12.4504 17.1823 12.1618 17.0848 12.0493 16.8336L11.8959 16.4911C11.6987 16.0508 11.8947 15.5315 12.3337 15.3312L13.8041 14.6605C14.5232 14.3325 14.8443 13.4818 14.5212 12.7604L14.3769 12.4382C14.1336 11.8948 14.3754 11.2539 14.9172 11.0068C15.4384 10.7691 15.9606 10.5335 16.4787 10.2888C16.5946 10.234 16.6436 10.2521 16.6951 10.3698C17.0222 11.1131 17.3565 11.8537 17.6884 12.5948C17.7886 12.8186 17.7865 12.8125 18.0131 12.7367C18.7004 12.506 19.3992 12.3284 20.1282 12.318C21.0643 12.3049 21.8594 12.6018 22.4228 13.3907C22.8493 13.9879 23.1091 14.6407 23.0489 15.3932C23.0137 15.8321 22.8475 16.2236 22.6007 16.5838C22.5709 16.6269 22.5419 16.6702 22.5087 16.7199C22.5087 16.72 22.5085 16.72 22.5084 16.7199ZM18.1413 20.1233C18.1034 20.1417 18.0779 20.1868 18.095 20.2251C18.5603 21.2583 19.0272 22.2908 19.4907 23.3241C19.5315 23.4153 19.5792 23.4205 19.6599 23.3811C20.2224 23.1072 20.7965 22.8549 21.3466 22.5578C21.8691 22.2758 22.3471 21.9243 22.7166 21.4433C23.327 20.649 23.0734 19.5353 22.1836 19.1456C21.7983 18.9767 21.3916 18.9826 20.9844 19.0471C19.9673 19.2082 19.0646 19.6761 18.1413 20.1233ZM17.35 18.5716C17.3691 18.6142 17.4191 18.6448 17.461 18.6241C17.9647 18.3744 18.4785 18.1414 18.9694 17.8687C19.3945 17.6318 19.7708 17.3241 20.0501 16.9099C20.6152 16.0715 20.0374 15.0408 19.3688 14.8312C18.9045 14.6856 18.4508 14.7418 17.9965 14.8624C17.3652 15.0297 16.7806 15.3143 16.1979 15.6058C16.0805 15.6645 16.0551 15.7133 16.1118 15.8356C16.4238 16.5108 16.7278 17.1895 17.0342 17.8666C17.1395 18.099 17.243 18.3323 17.35 18.5716Z" fill="white"/>
<path d="M20.9216 28.1342C20.9216 28.134 20.9215 28.1339 20.9213 28.1339C17.1823 29.3425 12.0394 27.7171 10.0166 22.9131C8.12034 18.4098 10.1546 13.8641 13.1521 11.8181C13.3433 11.6876 13.6147 11.7631 13.689 11.9822C13.7 12.0138 13.6539 12.0849 13.6161 12.1118C12.8965 12.6115 12.2482 13.1904 11.7135 13.8863C10.0019 16.1123 9.40522 18.6111 10.0563 21.3432C10.7234 24.1425 12.4187 26.1356 15.0349 27.2913C16.8211 28.0803 18.6827 28.1928 20.5778 27.7077C20.689 27.6794 20.737 27.7038 20.7751 27.8033C20.818 27.9149 20.8712 28.0226 20.9212 28.1342C20.9213 28.1345 20.9216 28.1344 20.9216 28.1342Z" fill="white"/>
<path d="M24.5431 26.4457C24.4811 26.307 24.4131 26.1736 24.365 26.0332C24.3536 26.0005 24.3994 25.9302 24.4373 25.9007C25.1971 25.3126 25.8606 24.6305 26.3848 23.8225C27.8822 21.5144 28.279 19.0265 27.4771 16.3952C26.7102 13.8795 25.0895 12.0827 22.7047 11.0145C21.0048 10.2529 19.2267 10.1029 17.4043 10.5009C17.2904 10.5259 17.2347 10.507 17.1967 10.3978C17.1618 10.2969 17.1115 10.2017 17.0693 10.1028C17.0592 10.0804 17.0806 10.0558 17.1042 10.0493C20.7583 9.0461 25.4918 10.676 27.5252 15.0551C29.578 19.4756 27.7476 24.2463 24.5433 26.4448C24.543 26.445 24.5429 26.4454 24.5431 26.4457Z" fill="white"/>
</svg>
